<svg width="2750" height="500" xmlns="http://www.w3.org/2000/svg">
 <metadata id="metadata8">image/svg+xml</metadata>
 <defs>
  <clipPath clipPathUnits="userSpaceOnUse" id="clipPath28">
   <path d="m-1011.12251,2493.8947l2850.004,0l0,-1900l-2850.004,0l0,1900z" id="path26"/>
  </clipPath>
 </defs>
 <g>
  <title>Layer 1</title>
  <g id="svg_4">
   <g id="g22" transform="matrix(0.646713836714539,0,0,-0.646713836714539,7.32366910525613,1261.7796278957596) ">
    <g id="g24" clip-path="url(#clipPath28)">
     <g id="g30">
      <path d="m762.74761,1557.26531c-4.444,31.696 -23.979,69.479 -91.817,69.479l-275.45,0l-8.651,-26.032l207.854,0l-211.827,-345.185l157.213,0c37.485,0 72.368,20.138 91.11,52.601l120.768,209.175c6.981,12.089 12.986,25.763 10.8,39.962" id="path32" fill-rule="nonzero" fill="#4252f9"/>
     </g>
     <g id="g34">
      <path d="m417.41948,1692.75603l-8.482,-25.521l0,-0.51l225.314,0c38.782,0 73.275,-0.735 94.604,-40.691c-10.724,43.026 -44.321,66.722 -94.604,66.722l-216.832,0z" id="path36" fill-rule="nonzero" fill="#4252f9"/>
     </g>
     <g id="g38">
      <path d="m439.35796,1758.76872l-8.311,-25.004l0,-1.027l166.528,0c36.626,0 76.329,-3.297 97.272,-38.029c-14.809,41.31 -49.354,64.06 -97.272,64.06l-158.217,0z" id="path40" fill-rule="nonzero" fill="#4252f9"/>
     </g>
     <g id="g42">
      <path d="m660.75152,1763.26189c-18.024,38.522 -55.351,61.52 -99.853,61.52l-99.604,0l-8.139,-24.495l0,-1.537l107.743,0c34.64,0 73.34,-0.183 99.853,-35.488" id="path44" fill-rule="nonzero" fill="#4252f9"/>
     </g>
     <g id="g46">
      <path d="m626.6021,1831.68327c-21.052,36.46 -60.28,59.11 -102.382,59.11l-40.987,0l-7.97,-23.983l0,-2.048l48.957,0c32.831,0 75.204,-1.03 102.382,-33.079" id="path48" fill-rule="nonzero" fill="#4252f9"/>
     </g>
     <g id="g50">
      <path d="m432.27788,1519.57628l8.651,26.031l-207.852,0l211.825,345.186l-157.213,0c-37.483,0 -72.368,-20.139 -91.109,-52.603l-120.768,-209.174c-6.98,-12.089 -12.987,-25.763 -10.8,-39.961c4.445,-31.697 23.978,-69.479 91.817,-69.479l275.449,0z" id="path52" fill-rule="nonzero" fill="#4252f9"/>
     </g>
     <g id="g54">
      <path d="m410.33941,1453.56273l8.482,25.522l0,0.509l-225.314,0c-38.782,0 -73.274,0.738 -94.603,40.693c10.723,-43.028 44.32,-66.724 94.603,-66.724l216.832,0z" id="path56" fill-rule="nonzero" fill="#4252f9"/>
     </g>
     <g id="g58">
      <path d="m388.40191,1387.55193l8.311,25.002l0,1.03l-166.529,0c-36.626,0 -76.33,3.296 -97.272,38.026c14.81,-41.31 49.355,-64.058 97.272,-64.058l158.218,0z" id="path60" fill-rule="nonzero" fill="#4252f9"/>
     </g>
     <g id="g62">
      <path d="m167.00737,1383.05681c18.024,-38.521 55.351,-61.519 99.853,-61.519l99.605,0l8.139,24.496l0,1.535l-107.744,0c-34.641,0 -73.34,0.184 -99.853,35.488" id="path64" fill-rule="nonzero" fill="#4252f9"/>
     </g>
     <g id="g66">
      <path d="m201.15679,1314.63487c21.051,-36.457 60.28,-59.107 102.382,-59.107l40.988,0l7.969,23.982l0,2.048l-48.957,0c-32.831,0 -75.204,1.03 -102.382,33.077" id="path68" fill-rule="nonzero" fill="#4252f9"/>
     </g>
    </g>
   </g>
   <text fill="#ffffff" stroke-width="null" stroke-dasharray="null" stroke-opacity="null" opacity="undefined" x="558.09164" y="315.26858" id="svg_1" font-size="250" font-family="'Poppins SemiBold'" text-anchor="start" xml:space="preserve" font-weight="normal" font-style="normal" transform="matrix(1.2359164953231812,0,0,1.2359164953231812,-129.75407242774963,-28.306293243542314) " stroke="null">BeyondPower</text>
  </g>
 </g>
</svg>